grf
version=1
nRows=11
nColumns=46
inDegrees=yes
endheader
time	ground_force_1_vx	ground_force_1_vy	ground_force_1_vz	ground_force_1_px	ground_force_1_py	ground_force_1_pz	ground_moment_1_mx	ground_moment_1_my	ground_moment_1_mz	ground_force_2_vx	ground_force_2_vy	ground_force_2_vz	ground_force_2_px	ground_force_2_py	ground_force_2_pz	ground_moment_2_mx	ground_moment_2_my	ground_moment_2_mz	ground_force_3_vx	ground_force_3_vy	ground_force_3_vz	ground_force_3_px	ground_force_3_py	ground_force_3_pz	ground_moment_3_mx	ground_moment_3_my	ground_moment_3_mz	ground_force_4_vx	ground_force_4_vy	ground_force_4_vz	ground_force_4_px	ground_force_4_py	ground_force_4_pz	ground_moment_4_mx	ground_moment_4_my	ground_moment_4_mz	ground_force_5_vx	ground_force_5_vy	ground_force_5_vz	ground_force_5_px	ground_force_5_py	ground_force_5_pz	ground_moment_5_mx	ground_moment_5_my	ground_moment_5_mz
0.755000	0.000000	0.000000	0.000000	0.000000	0.000000	0.000000	0.000000	0.000000	0.000000	0.000000	0.000000	0.000000	0.000000	0.000000	0.000000	0.000000	0.000000	0.000000	0.000000	0.000000	0.000000	0.000000	0.000000	0.000000	0.000000	0.000000	0.000000	14.346764	447.598263	-62.981428	0.186068	0.000000	-0.900860	0.000000	5.815944	0.000000	5.025472	413.802756	61.980619	0.209644	0.000000	-1.586328	-0.000000	-6.756811	-0.000000
0.755500	0.000000	0.000000	0.000000	0.000000	0.000000	0.000000	0.000000	0.000000	0.000000	0.000000	0.000000	0.000000	0.000000	0.000000	0.000000	0.000000	0.000000	0.000000	0.000000	0.000000	0.000000	0.000000	0.000000	0.000000	0.000000	0.000000	0.000000	14.359343	447.574437	-62.977513	0.186099	0.000000	-0.900828	0.000000	5.821900	0.000000	4.982315	413.801789	61.967586	0.209718	0.000000	-1.586368	-0.000000	-6.757591	-0.000000
0.756000	0.000000	0.000000	0.000000	0.000000	0.000000	0.000000	0.000000	0.000000	0.000000	0.000000	0.000000	0.000000	0.000000	0.000000	0.000000	0.000000	0.000000	0.000000	0.000000	0.000000	0.000000	0.000000	0.000000	0.000000	0.000000	0.000000	0.000000	14.369341	447.547349	-62.974415	0.186131	0.000000	-0.900796	0.000000	5.827847	0.000000	4.939970	413.803216	61.955797	0.209791	0.000000	-1.586409	-0.000000	-6.758362	-0.000000
0.756500	0.000000	0.000000	0.000000	0.000000	0.000000	0.000000	0.000000	0.000000	0.000000	0.000000	0.000000	0.000000	0.000000	0.000000	0.000000	0.000000	0.000000	0.000000	0.000000	0.000000	0.000000	0.000000	0.000000	0.000000	0.000000	0.000000	0.000000	14.376736	447.516890	-62.972140	0.186164	0.000000	-0.900763	0.000000	5.833780	0.000000	4.898510	413.806708	61.945187	0.209863	0.000000	-1.586451	-0.000000	-6.759123	-0.000000
0.757000	0.000000	0.000000	0.000000	0.000000	0.000000	0.000000	0.000000	0.000000	0.000000	0.000000	0.000000	0.000000	0.000000	0.000000	0.000000	0.000000	0.000000	0.000000	0.000000	0.000000	0.000000	0.000000	0.000000	0.000000	0.000000	0.000000	0.000000	14.381516	447.482962	-62.970694	0.186198	0.000000	-0.900730	0.000000	5.839693	0.000000	4.858004	413.811930	61.935689	0.209936	0.000000	-1.586492	-0.000000	-6.759875	-0.000000
0.757500	0.000000	0.000000	0.000000	0.000000	0.000000	0.000000	0.000000	0.000000	0.000000	0.000000	0.000000	0.000000	0.000000	0.000000	0.000000	0.000000	0.000000	0.000000	0.000000	0.000000	0.000000	0.000000	0.000000	0.000000	0.000000	0.000000	0.000000	14.383674	447.445456	-62.970082	0.186231	0.000000	-0.900697	0.000000	5.845582	0.000000	4.818511	413.818553	61.927234	0.210009	0.000000	-1.586534	-0.000000	-6.760618	-0.000000
0.758000	0.000000	0.000000	0.000000	0.000000	0.000000	0.000000	0.000000	0.000000	0.000000	0.000000	0.000000	0.000000	0.000000	0.000000	0.000000	0.000000	0.000000	0.000000	0.000000	0.000000	0.000000	0.000000	0.000000	0.000000	0.000000	0.000000	0.000000	14.383213	447.404244	-62.970306	0.186266	0.000000	-0.900663	0.000000	5.851440	0.000000	4.780084	413.826250	61.919743	0.210081	0.000000	-1.586576	-0.000000	-6.761353	-0.000000
0.758500	0.000000	0.000000	0.000000	0.000000	0.000000	0.000000	0.000000	0.000000	0.000000	0.000000	0.000000	0.000000	0.000000	0.000000	0.000000	0.000000	0.000000	0.000000	0.000000	0.000000	0.000000	0.000000	0.000000	0.000000	0.000000	0.000000	0.000000	14.380149	447.359184	-62.971363	0.186301	0.000000	-0.900629	0.000000	5.857265	0.000000	4.742772	413.834696	61.913131	0.210153	0.000000	-1.586618	-0.000000	-6.762083	-0.000000
0.759000	0.000000	0.000000	0.000000	0.000000	0.000000	0.000000	0.000000	0.000000	0.000000	0.000000	0.000000	0.000000	0.000000	0.000000	0.000000	0.000000	0.000000	0.000000	0.000000	0.000000	0.000000	0.000000	0.000000	0.000000	0.000000	0.000000	0.000000	14.374501	447.310132	-62.973246	0.186337	0.000000	-0.900595	0.000000	5.863053	0.000000	4.706622	413.843566	61.907309	0.210225	0.000000	-1.586660	-0.000000	-6.762808	-0.000000
0.759500	0.000000	0.000000	0.000000	0.000000	0.000000	0.000000	0.000000	0.000000	0.000000	0.000000	0.000000	0.000000	0.000000	0.000000	0.000000	0.000000	0.000000	0.000000	0.000000	0.000000	0.000000	0.000000	0.000000	0.000000	0.000000	0.000000	0.000000	14.366297	447.256957	-62.975942	0.186373	0.000000	-0.900560	0.000000	5.868800	0.000000	4.671671	413.852532	61.902179	0.210296	0.000000	-1.586702	-0.000000	-6.763528	-0.000000
0.760000	0.000000	0.000000	0.000000	0.000000	0.000000	0.000000	0.000000	0.000000	0.000000	0.000000	0.000000	0.000000	0.000000	0.000000	0.000000	0.000000	0.000000	0.000000	0.000000	0.000000	0.000000	0.000000	0.000000	0.000000	0.000000	0.000000	0.000000	14.355559	447.199545	-62.979434	0.186410	0.000000	-0.900524	0.000000	5.874502	0.000000	4.637951	413.861263	61.897648	0.210368	0.000000	-1.586745	-0.000000	-6.764242	-0.000000
